# xmcd
#
# Track frame offsets: 
#        150
#        24707
#        44655
#        64347
#        87210
#        113535
#        134222
#        154390
#        171770
#        186705
#        207437
#
# Disc length: 2948 seconds
#
# Revision: 1
# Processed by: cddbd v1.5.2PL0 Copyright (c) Steve Scherf et al.
# Submitted via: ExactAudioCopy v0.95b4
#
DISCID=ab0b820b
DTITLE=Candyman - Playtime's Over
DYEAR=1991
DGENRE=Rap
TTITLE0=Round 2 (I'm Back)
TTITLE1=Sho Feels Good
TTITLE2=I Wanna Luv You
TTITLE3=Oneighundredskytakpinelevenotwosevenine
TTITLE4=Everybody Wanna Be Rappa
TTITLE5=Tastee
TTITLE6=Who Shakes The Best (Part 2)
TTITLE7=Another Hiney
TTITLE8=Sex On The Beach
TTITLE9=Playtime's Over
TTITLE10=I'm Done
EXTD=
EXTT0=
EXTT1=
EXTT2=
EXTT3=
EXTT4=
EXTT5=
EXTT6=
EXTT7=
EXTT8=
EXTT9=
EXTT10=
PLAYORDER=
